<?xml version="1.0" standalone="no"?>
<!DOCTYPE svg PUBLIC "-//W3C//DTD SVG 20010904//EN"
 "http://www.w3.org/TR/2001/REC-SVG-20010904/DTD/svg10.dtd">
<svg version="1.0" xmlns="http://www.w3.org/2000/svg"
 width="200.000000pt" height="200.000000pt" viewBox="0 0 200.000000 200.000000"
 preserveAspectRatio="xMidYMid meet">
<metadata>
Created by potrace 1.14, written by Peter Selinger 2001-2017
</metadata>
<g transform="translate(0.000000,200.000000) scale(0.100000,-0.100000)"
fill="#000000" stroke="none">
<path d="M1398 1463 c6 -2 18 -2 25 0 6 3 1 5 -13 5 -14 0 -19 -2 -12 -5z"/>
<path d="M1330 1409 c-19 -17 -27 -28 -18 -25 14 4 16 1 8 -19 -7 -19 -6 -26
7 -33 11 -6 12 -11 4 -16 -14 -9 -14 -26 0 -26 6 0 40 21 75 46 62 44 64 47
48 65 -10 11 -12 19 -6 19 7 0 12 5 12 10 0 6 -21 10 -47 10 -39 0 -55 -6 -83
-31z"/>
<path d="M1095 1419 c-21 -5 -45 -7 -52 -5 -7 3 -13 1 -13 -4 0 -6 -9 -5 -20
2 -16 10 -27 9 -65 -10 -25 -12 -45 -26 -45 -32 0 -5 -5 -10 -11 -10 -6 0 -25
-11 -41 -25 -16 -14 -35 -22 -41 -18 -7 3 -9 3 -5 -1 3 -4 -3 -17 -15 -29 -12
-12 -22 -16 -25 -9 -5 15 -34 3 -51 -21 -10 -14 -16 -16 -21 -7 -5 8 -16 1
-33 -24 -13 -20 -45 -50 -70 -65 -51 -33 -107 -109 -110 -149 -2 -24 2 -27 30
-30 32 -3 33 -2 27 27 -5 26 -1 36 29 66 19 19 40 35 46 35 6 0 11 -17 11 -39
0 -38 16 -50 37 -26 5 4 1 5 -7 0 -8 -5 -4 3 9 18 13 14 29 23 35 21 16 -6 40
22 31 35 -3 6 0 9 8 6 8 -4 37 18 69 52 31 32 81 82 111 111 l54 53 28 -103
c16 -57 31 -106 35 -111 3 -4 28 23 54 59 26 36 43 63 37 59 -6 -3 -11 -2 -11
4 0 11 4 15 74 88 l48 51 -28 15 c-45 22 -66 26 -109 16z"/>
<path d="M1419 1332 c-84 -54 -244 -238 -391 -448 -28 -40 -53 -72 -55 -70 -2
1 -19 59 -39 127 -19 68 -36 125 -38 127 -2 1 -41 -35 -87 -81 -139 -139 -243
-192 -308 -158 -31 17 -27 -5 5 -26 34 -22 82 -22 133 1 l40 19 58 -53 c32
-29 83 -65 113 -79 49 -23 68 -26 165 -26 102 0 114 2 169 30 33 17 81 51 108
77 49 47 108 154 108 194 0 12 13 39 30 60 16 21 43 56 60 78 33 42 70 133 70
171 0 37 -20 73 -44 79 -37 10 -51 7 -97 -22z m51 -58 c0 -27 -16 -68 -44
-108 l-19 -28 -22 53 c-23 59 -22 64 33 101 31 20 52 13 52 -18z"/>
<path d="M695 1049 c-49 -45 -48 -57 5 -105 l25 -23 43 42 c45 44 83 96 48 68
-14 -12 -16 -12 -10 3 6 16 -3 20 -36 17 -13 -2 -13 -1 0 9 13 9 13 11 0 20
-23 15 -27 13 -75 -31z"/>
<path d="M675 1069 c-4 -6 -5 -12 -2 -15 2 -3 7 2 10 11 7 17 1 20 -8 4z"/>
<path d="M1073 1004 c10 -17 -20 -26 -80 -26 -29 0 -53 -3 -53 -7 0 -3 8 -35
18 -71 l19 -64 57 78 c46 61 55 80 46 89 -10 9 -11 9 -7 1z"/>
</g>
</svg>
